 <svg  version="1.0" xmlns="http://www.w3.org/2000/svg"  width="200.000000pt" height="200.000000pt" viewBox="0 0 200.000000 200.000000"  preserveAspectRatio="xMidYMid meet">  <g transform="translate(0.000000,200.000000) scale(0.100000,-0.100000)" fill="#ffffff" stroke="none"> <path d="M683 1488 c-6 -7 -13 -57 -16 -110 -15 -229 -95 -494 -208 -690 -24 -42 -37 -73 -32 -83 8 -22 120 -95 144 -95 23 0 57 53 125 195 101 213 152 406 173 650 12 141 10 145 -99 145 -50 0 -81 -4 -87 -12z"/> <path d="M911 1486 c-8 -9 -10 -148 -9 -497 l3 -484 83 -3 c53 -2 89 1 98 9 19 16 21 958 2 977 -17 17 -162 16 -177 -2z"/> <path d="M1400 1470 c-27 -27 -143 -267 -179 -371 -65 -189 -121 -548 -91 -584 16 -19 170 -21 188 -3 7 7 12 40 12 78 0 197 89 510 200 702 22 38 40 79 40 91 0 16 -19 34 -65 65 -36 23 -69 42 -75 42 -5 0 -19 -9 -30 -20z"/> </g> </svg> 